<svg xmlns="http://www.w3.org/2000/svg" viewBox="0 0 460.001 460.001" fill="#eee">
<g>
	<g>
		<g>
			<path d="M427.137,0H32.865C14.743,0,0,14.743,0,32.865v394.272c0,18.121,14.743,32.864,32.865,32.864h394.271
				c18.122,0,32.865-14.743,32.865-32.864V32.865C460.002,14.743,445.259,0,427.137,0z M427.137,430.002H32.865
				c-1.58,0-2.865-1.285-2.865-2.864V32.865C30,31.285,31.285,30,32.865,30h394.271c1.58,0,2.865,1.285,2.865,2.865v394.273h0.001
				C430.002,428.717,428.717,430.002,427.137,430.002z"/>
			<path d="M350.85,89.001H109.152c-8.284,0-15,6.716-15,15s6.716,15,15,15H350.85c8.284,0,15-6.716,15-15
				S359.134,89.001,350.85,89.001z"/>
			<path d="M350.85,183.001H109.152c-8.284,0-15,6.716-15,15s6.716,15,15,15H350.85c8.284,0,15-6.716,15-15
				S359.134,183.001,350.85,183.001z"/>
			<path d="M240.607,272.109c-5.857-5.857-15.355-5.857-21.213,0l-77.182,77.182c-4.29,4.29-5.573,10.741-3.252,16.347
				c2.322,5.605,7.791,9.26,13.858,9.26h154.363c6.067,0,11.536-3.654,13.858-9.26c2.321-5.605,1.038-12.057-3.252-16.347
				L240.607,272.109z M189.032,344.897l40.969-40.969l40.969,40.969H189.032z"/>
		</g>
	</g>
</g>

</svg>
